<svg width="27" height="30" viewBox="0 0 27 30" fill="none" xmlns="http://www.w3.org/2000/svg">
<g clip-path="url(#clip0_48_317)">
<path d="M13.5 2.70117C17.107 2.70117 17.5342 2.71875 18.9527 2.78906C20.2711 2.85352 20.983 3.09961 21.4576 3.30469C22.0852 3.57422 22.5387 3.90234 23.008 4.42383C23.4826 4.95117 23.7727 5.44922 24.0152 6.14648C24.1998 6.67383 24.4213 7.4707 24.4793 8.92969C24.5426 10.5117 24.5584 10.9863 24.5584 14.9883C24.5584 18.9961 24.5426 19.4707 24.4793 21.0469C24.4213 22.5117 24.1998 23.3027 24.0152 23.8301C23.7727 24.5273 23.4773 25.0313 23.008 25.5527C22.5334 26.0801 22.0852 26.4023 21.4576 26.6719C20.983 26.877 20.2658 27.123 18.9527 27.1875C17.5289 27.2578 17.1018 27.2754 13.5 27.2754C9.89297 27.2754 9.46582 27.2578 8.04727 27.1875C6.72891 27.123 6.01699 26.877 5.54238 26.6719C4.91484 26.4023 4.46133 26.0742 3.99199 25.5527C3.51738 25.0254 3.22734 24.5273 2.98477 23.8301C2.8002 23.3027 2.57871 22.5059 2.5207 21.0469C2.45742 19.4648 2.4416 18.9902 2.4416 14.9883C2.4416 10.9805 2.45742 10.5059 2.5207 8.92969C2.57871 7.46484 2.8002 6.67383 2.98477 6.14648C3.22734 5.44922 3.52266 4.94531 3.99199 4.42383C4.4666 3.89648 4.91484 3.57422 5.54238 3.30469C6.01699 3.09961 6.73418 2.85352 8.04727 2.78906C9.46582 2.71875 9.89297 2.70117 13.5 2.70117ZM13.5 0C9.83496 0 9.37617 0.0175781 7.93652 0.0878906C6.50215 0.158203 5.51602 0.416016 4.66172 0.785156C3.77051 1.17187 3.01641 1.68164 2.26758 2.51953C1.51348 3.35156 1.05469 4.18945 0.706641 5.17383C0.374414 6.12891 0.142383 7.21875 0.0791016 8.8125C0.0158203 10.418 0 10.9277 0 15C0 19.0723 0.0158203 19.582 0.0791016 21.1816C0.142383 22.7754 0.374414 23.8711 0.706641 24.8203C1.05469 25.8105 1.51348 26.6484 2.26758 27.4805C3.01641 28.3125 3.77051 28.8281 4.65645 29.209C5.51602 29.5781 6.49688 29.8359 7.93125 29.9062C9.3709 29.9766 9.82969 29.9941 13.4947 29.9941C17.1598 29.9941 17.6186 29.9766 19.0582 29.9062C20.4926 29.8359 21.4787 29.5781 22.333 29.209C23.2189 28.8281 23.973 28.3125 24.7219 27.4805C25.4707 26.6484 25.9348 25.8105 26.2775 24.8262C26.6098 23.8711 26.8418 22.7813 26.9051 21.1875C26.9684 19.5879 26.9842 19.0781 26.9842 15.0059C26.9842 10.9336 26.9684 10.4238 26.9051 8.82422C26.8418 7.23047 26.6098 6.13477 26.2775 5.18555C25.9453 4.18945 25.4865 3.35156 24.7324 2.51953C23.9836 1.6875 23.2295 1.17188 22.3436 0.791016C21.484 0.421875 20.5031 0.164063 19.0688 0.09375C17.6238 0.0175781 17.165 0 13.5 0Z" fill="white"/>
<path d="M13.5 7.29492C9.67148 7.29492 6.56543 10.7461 6.56543 15C6.56543 19.2539 9.67148 22.7051 13.5 22.7051C17.3285 22.7051 20.4346 19.2539 20.4346 15C20.4346 10.7461 17.3285 7.29492 13.5 7.29492ZM13.5 19.998C11.0162 19.998 9.00176 17.7598 9.00176 15C9.00176 12.2402 11.0162 10.002 13.5 10.002C15.9838 10.002 17.9982 12.2402 17.9982 15C17.9982 17.7598 15.9838 19.998 13.5 19.998Z" fill="white"/>
<path d="M22.3277 6.99024C22.3277 7.98633 21.6 8.78907 20.7088 8.78907C19.8123 8.78907 19.0898 7.98047 19.0898 6.99024C19.0898 5.99414 19.8176 5.19141 20.7088 5.19141C21.6 5.19141 22.3277 6 22.3277 6.99024Z" fill="white"/>
</g>
<defs>
<clipPath id="clip0_48_317">
<rect width="27" height="30" fill="white"/>
</clipPath>
</defs>
</svg>
