<svg width="30" height="30" viewBox="0 0 30 30" fill="none" xmlns="http://www.w3.org/2000/svg">
<path d="M15 0C6.71591 0 0 6.71523 0 15C0 23.2848 6.71591 30 15 30C23.2841 30 30 23.2848 30 15C30 6.71523 23.2841 0 15 0ZM22.3182 21.6234C22.0773 22.05 21.6341 22.29 21.1773 22.29C20.9636 22.29 20.7432 22.2366 20.5409 22.1241C18.6682 21.0741 16.6273 20.4309 14.4705 20.2125C12.3091 19.9959 10.175 20.2152 8.125 20.8698C7.44091 21.0882 6.70455 20.7102 6.48637 20.025C6.26592 19.3386 6.64546 18.6048 7.33182 18.3852C9.72273 17.6214 12.2159 17.3616 14.7341 17.6175C17.2477 17.8734 19.6295 18.6234 21.8159 19.8489C22.4455 20.1993 22.6704 20.9943 22.3182 21.6234ZM24.1136 17.0673C23.8818 17.5134 23.4273 17.7693 22.9568 17.7693C22.7523 17.7693 22.5477 17.7225 22.3545 17.6214C20.0523 16.4223 17.5659 15.6798 14.9591 15.4152C12.3318 15.1464 9.72955 15.3807 7.22046 16.1043C6.52728 16.3011 5.80456 15.9048 5.60683 15.2118C5.40683 14.52 5.80681 13.7973 6.49772 13.5975C9.32954 12.7809 12.2659 12.5193 15.2227 12.8193C18.1591 13.1184 20.9636 13.9548 23.5614 15.3084C24.1977 15.6414 24.4477 16.4286 24.1136 17.0673ZM24.7636 13.2768C24.5682 13.2768 24.3705 13.2327 24.1818 13.14C21.45 11.7777 18.5114 10.9293 15.4454 10.6182C12.375 10.3041 9.32045 10.5468 6.36364 11.3364C5.66818 11.5209 4.95454 11.1084 4.76818 10.4118C4.58181 9.71614 4.99547 9.00091 5.69319 8.81523C8.95456 7.94432 12.3273 7.67909 15.7114 8.02318C19.0909 8.36523 22.3318 9.30182 25.3455 10.8048C25.9909 11.1261 26.2523 11.91 25.9318 12.5541C25.7045 13.0125 25.2432 13.2768 24.7636 13.2768Z" fill="white"/>
</svg>
